<!DOCTYPE svg PUBLIC "-//W3C//DTD SVG 1.1//EN" "http://www.w3.org/Graphics/SVG/1.1/DTD/svg11.dtd">
<!-- Uploaded to: SVG Repo, www.svgrepo.com, Transformed by: SVG Repo Mixer Tools -->
<svg height="800px" width="800px" version="1.1" id="Capa_1" xmlns="http://www.w3.org/2000/svg" xmlns:xlink="http://www.w3.org/1999/xlink" viewBox="-0.24 -0.24 24.87 24.87" xml:space="preserve" fill="#000000" style="--darkreader-inline-fill: var(--darkreader-background-000000, #000000); --darkreader-inline-stroke: var(--darkreader-text-000000, #e8e6e3);" data-darkreader-inline-fill="" stroke="#000000" stroke-width="0.48786000000000007" data-darkreader-inline-stroke="">
<g id="SVGRepo_bgCarrier" stroke-width="0"/>
<g id="SVGRepo_tracerCarrier" stroke-linecap="round" stroke-linejoin="round" stroke="#CCCCCC" stroke-width="0.048786" style="--darkreader-inline-stroke: var(--darkreader-text-cccccc, #c8c3bc);" data-darkreader-inline-stroke=""/>
<g id="SVGRepo_iconCarrier"> <g> <path style="fill: rgb(3, 1, 4); --darkreader-inline-fill: var(--darkreader-text-030104, #e6e4e1);" d="M12.196,0C5.46,0,0,5.46,0,12.196s5.46,12.197,12.196,12.197s12.197-5.461,12.197-12.197 S18.932,0,12.196,0z M12.196,21.782c-5.295,0-9.586-4.291-9.586-9.586S6.901,2.61,12.196,2.61s9.586,4.291,9.586,9.586 S17.491,21.782,12.196,21.782z M14.1,7.436v9.519c0,1.051-0.852,1.904-1.904,1.904s-1.904-0.852-1.904-1.904V7.436 c0-1.051,0.852-1.904,1.904-1.904S14.1,6.385,14.1,7.436z" data-darkreader-inline-fill=""/> </g> </g>
</svg>